<svg id="Capa_1" enable-background="new 0 0 512 512" height="512" viewBox="0 0 512 512" width="512" xmlns="http://www.w3.org/2000/svg"><g><path d="m10 386h56v106h-10c-5.523 0-10 4.477-10 10s4.477 10 10 10h40c5.523 0 10-4.477 10-10s-4.477-10-10-10h-10v-43h340v43h-10c-5.522 0-10 4.477-10 10s4.478 10 10 10h40c5.522 0 10-4.477 10-10s-4.478-10-10-10h-10v-106h56c5.522 0 10-4.477 10-10v-60c0-5.523-4.478-10-10-10h-36v-276c0-5.523-4.478-10-10-10h-150v-10c0-5.523-4.478-10-10-10h-80c-5.523 0-10 4.477-10 10v10h-150c-5.523 0-10 4.477-10 10v276h-36c-5.523 0-10 4.477-10 10v60c0 5.523 4.477 10 10 10zm416 43h-340v-43h340zm-200-409h60v40h-60zm-20 20v30c0 5.523 4.477 10 10 10h80c5.522 0 10-4.477 10-10v-30h140v194.258l-123.492-105.85c-3.744-3.209-9.271-3.209-13.016 0l-132.969 113.973-53.452-53.452c-3.905-3.905-10.237-3.905-14.143 0l-42.928 42.928v-191.857zm-140 220.143 50-50 52.929 52.929c3.695 3.695 9.612 3.921 13.579.521l133.492-114.422 130 111.429v45.4h-380zm-46 65.857h472v40h-472z"/><path d="m176 166c16.542 0 30-13.458 30-30s-13.458-30-30-30-30 13.458-30 30 13.458 30 30 30z"/></g></svg>