<svg id="Capa_1" enable-background="new 0 0 512 512" height="512" viewBox="0 0 512 512" width="512" xmlns="http://www.w3.org/2000/svg"><g><path d="m50 466h412c27.57 0 50-22.43 50-50v-260c0-27.57-22.43-50-50-50h-116v-30c0-16.542-13.458-30-30-30h-120c-16.542 0-30 13.458-30 30v30h-116c-27.57 0-50 22.43-50 50v260c0 27.57 22.43 50 50 50zm412-20h-412c-16.542 0-30-13.458-30-30v-147.195c32.619 7.973 122.755 28.869 196 35.272v1.923c0 22.056 17.944 40 40 40s40-17.944 40-40v-1.922c73.245-6.403 163.381-27.3 196-35.272v147.194c0 16.542-13.458 30-30 30zm-276-370c0-5.514 4.486-10 10-10h120c5.514 0 10 4.486 10 10v30h-140zm-136 50h412c16.542 0 30 13.458 30 30v92.209c-26.803 6.654-120.416 28.977-196 35.789v-7.998c0-5.523-4.478-10-10-10h-60c-5.522 0-10 4.477-10 10v7.998c-75.559-6.811-169.193-29.135-196-35.789v-92.209c0-16.542 13.458-30 30-30z"/><path d="m136 186h50v10c0 5.523 4.478 10 10 10s10-4.477 10-10v-10h170c5.522 0 10-4.477 10-10s-4.478-10-10-10h-240c-5.522 0-10 4.477-10 10s4.478 10 10 10z"/></g></svg>