<svg id="Capa_1" enable-background="new 0 0 512 512" height="512" viewBox="0 0 512 512" width="512" xmlns="http://www.w3.org/2000/svg"><g><path d="m46 512h100c5.522 0 10-4.477 10-10 0-5.514 4.486-10 10-10s10 4.486 10 10c0 5.523 4.478 10 10 10h140c5.522 0 10-4.477 10-10 0-5.514 4.486-10 10-10s10 4.486 10 10c0 5.523 4.478 10 10 10h100c5.522 0 10-4.477 10-10v-40c0-16.542-13.458-30-30-30h-11.122l-14.575-122.202c-3.121-24.969-24.45-43.798-49.615-43.798h-51.838l-20.423-96.177c-2.38-10.714 1.63-21.941 10.729-30.035 17.06-15.177 26.844-36.969 26.844-59.788 0-44.112-35.888-80-80-80-44.911.001-80.622 36.007-79.992 81.14.321 22.935 10.506 44.663 27.942 59.614 8.333 7.145 12.027 18.253 9.62 29.083l-20.42 96.163h-51.839c-25.164 0-46.493 18.829-49.621 43.854l-14.568 122.146h-11.122c-16.542 0-30 13.458-30 30v40c0 5.523 4.478 10 10 10zm324.688-226c15.099 0 27.896 11.297 29.762 26.223l14.286 119.777h-60.636l-31.003-146zm-37.035 146h-155.306l31.002-146h93.302zm-100.539-257.917c3.992-17.962-2.194-36.551-16.146-48.512-13.081-11.216-20.722-27.513-20.962-44.71-.473-33.891 26.181-60.861 59.994-60.861 33.084 0 60 26.916 60 60 0 17.114-7.34 33.46-20.138 44.845-14.596 12.984-20.936 31.419-16.979 49.224l19.521 91.931h-84.808zm-121.571 138.196c1.872-14.981 14.67-26.279 29.769-26.279h47.592l-31.004 146h-60.636z"/></g></svg>