<svg id="Capa_1" enable-background="new 0 0 512 512" height="512" viewBox="0 0 512 512" width="512" xmlns="http://www.w3.org/2000/svg"><g><path d="m273 392c5.523 0 10-4.477 10-10v-40c0-5.523-4.477-10-10-10h-200c-5.523 0-10 4.477-10 10v40c0 5.523 4.477 10 10 10z"/><path d="m253 292c27.57 0 50-22.43 50-50s-22.43-50-50-50h-160c-27.57 0-50 22.43-50 50s22.43 50 50 50zm-90-20h-40v-60h40zm20-60h40v60h-40zm100 30c0 16.542-13.458 30-30 30h-10v-60h10c16.542 0 30 13.458 30 30zm-220 0c0-16.542 13.458-30 30-30h10v60h-10c-16.542 0-30-13.458-30-30z"/><path d="m472 432h-126v-290c0-5.523-4.477-10-10-10h-33v-92c0-22.056-17.944-40-40-40s-40 17.944-40 40v5.381c-5.888-3.415-12.717-5.381-20-5.381-8.231 0-15.888 2.501-22.255 6.78-5.472-15.577-20.321-26.78-37.745-26.78-8.231 0-15.888 2.501-22.255 6.78-5.472-15.577-20.321-26.78-37.745-26.78-22.056 0-40 17.944-40 40v92h-33c-5.523 0-10 4.477-10 10v360c0 5.523 4.477 10 10 10h462c22.056 0 40-17.944 40-40s-17.944-40-40-40zm-229-392c0-11.028 8.972-20 20-20s20 8.972 20 20v92h-40c0-13.044 0-78.975 0-92zm-40 20c11.028 0 20 8.972 20 20v52h-40v-52c0-11.028 8.972-20 20-20zm-60-20c11.028 0 20 8.972 20 20v72h-40v-72c0-11.028 8.972-20 20-20zm-80 0c0-11.028 8.972-20 20-20s20 8.972 20 20v92h-40zm-43 112h306v280h-193c-5.523 0-10 4.477-10 10v50h-103zm452 340h-329v-40h329c11.028 0 20 8.972 20 20s-8.972 20-20 20z"/></g></svg>