<svg id="Capa_1" enable-background="new 0 0 512 512" height="512" viewBox="0 0 512 512" width="512" xmlns="http://www.w3.org/2000/svg"><g><path d="m126 372h-30c-5.523 0-10 4.477-10 10v120c0 5.523 4.477 10 10 10h320c5.522 0 10-4.477 10-10 0-38.598-31.402-70-70-70h-130v-40h140c5.522 0 10-4.477 10-10s-4.478-10-10-10c-7.853 0-171.408 0-180 0v-139c0-27.57 22.43-50 50-50h30v73c0 5.523 4.478 10 10 10h10v50c0 5.523 4.478 10 10 10h60c5.522 0 10-4.477 10-10v-50h10c5.522 0 10-4.477 10-10v-186c0-5.523-4.478-10-10-10h-10v-50c0-5.523-4.478-10-10-10h-60c-5.522 0-10 4.477-10 10v50h-10c-5.522 0-10 4.477-10 10v53h-30c-60.654 0-110 49.346-110 110zm90 80h140c24.146 0 44.35 17.206 48.995 40h-298.995v-100h100v50c0 5.523 4.477 10 10 10zm70-372h80v166h-80zm-50 63h30v20h-30c-38.598 0-70 31.402-70 70v139h-20v-139c0-49.626 40.374-90 90-90z"/><circle cx="156" cy="442" r="10"/></g></svg>