<svg id="Capa_1" enable-background="new 0 0 512 512" height="512" viewBox="0 0 512 512" width="512" xmlns="http://www.w3.org/2000/svg"><g><path d="m56 10v492c0 5.522 4.477 10 10 10h380c5.523 0 10-4.478 10-10v-492c0-5.523-4.477-10-10-10h-380c-5.523 0-10 4.477-10 10zm121.72 50c4.128 11.639 15.243 20 28.28 20h100c13.036 0 24.152-8.361 28.28-20h61.72v392h-280v-392zm138.28-10c0 5.514-4.486 10-10 10h-100c-5.514 0-10-4.486-10-10v-30h120zm-240-30h100v20h-70c-5.523 0-10 4.477-10 10v412c0 5.523 4.477 10 10 10h300c5.523 0 10-4.477 10-10v-412c0-5.523-4.477-10-10-10h-70v-20h100v472h-360z"/><path d="m168.929 263.071c3.905 3.905 10.237 3.905 14.143 0l30-30c3.905-3.905 3.905-10.237 0-14.143s-10.237-3.905-14.143 0l-22.929 22.93-2.929-2.929c-3.905-3.905-10.237-3.905-14.143 0s-3.905 10.237 0 14.143z"/><path d="m266 246h80c5.523 0 10-4.477 10-10s-4.477-10-10-10h-80c-5.523 0-10 4.477-10 10s4.477 10 10 10z"/><path d="m168.929 423.071c3.905 3.905 10.237 3.905 14.143 0l30-30c3.905-3.905 3.905-10.237 0-14.143s-10.237-3.905-14.143 0l-22.929 22.93-2.929-2.929c-3.905-3.905-10.237-3.905-14.143 0s-3.905 10.237 0 14.143z"/><path d="m266 406h80c5.523 0 10-4.477 10-10s-4.477-10-10-10h-80c-5.523 0-10 4.477-10 10s4.477 10 10 10z"/><path d="m266 166h80c5.523 0 10-4.477 10-10s-4.477-10-10-10h-80c-5.523 0-10 4.477-10 10s4.477 10 10 10z"/><path d="m266 326h80c5.523 0 10-4.477 10-10s-4.477-10-10-10h-80c-5.523 0-10 4.477-10 10s4.477 10 10 10z"/><path d="m166 186h40c5.523 0 10-4.477 10-10v-40c0-5.523-4.477-10-10-10h-40c-5.523 0-10 4.477-10 10v40c0 5.523 4.477 10 10 10z"/><path d="m206 286h-40c-5.523 0-10 4.477-10 10v40c0 5.523 4.477 10 10 10h40c5.523 0 10-4.477 10-10v-40c0-5.523-4.477-10-10-10z"/></g></svg>