<svg id="Capa_1" enable-background="new 0 0 512 512" height="512" viewBox="0 0 512 512" width="512" xmlns="http://www.w3.org/2000/svg"><g><path d="m0 472c0 22.056 17.944 40 40 40 10.388 0 20.238-3.977 27.736-11.197.045-.044 151.188-151.011 151.293-151.116 30.818 19.855 66.238 30.313 102.971 30.313 104.767 0 190-85.234 190-190s-85.233-190-190-190c-104.766 0-190 85.234-190 190 0 36.711 10.446 72.111 30.315 102.968-161.969 162.158-149.458 149.632-150.128 150.303-7.859 7.623-12.187 17.822-12.187 28.729zm322-452c93.738 0 170 76.262 170 170s-76.262 170-170 170c-94.322 0-170-76.656-170-170 0-93.738 76.262-170 170-170zm-295.854 437.594c.042-.041 104.654-104.652 104.654-104.652l28.258 28.258-105.256 105.255c-3.744 3.576-8.642 5.545-13.802 5.545-11.028 0-20-8.972-20-20 0-5.463 2.183-10.58 6.146-14.406z"/></g></svg>