<svg id="Capa_1" enable-background="new 0 0 512 512" height="512" viewBox="0 0 512 512" width="512" xmlns="http://www.w3.org/2000/svg"><g><path d="m502 196h-76v-130c0-27.57-22.43-50-50-50h-100c-27.57 0-50 22.43-50 50v130h-40v-130c0-5.522-4.477-10-10-10h-120c-5.523 0-10 4.478-10 10v130h-36c-5.523 0-10 4.478-10 10v60c0 5.522 4.477 10 10 10h10v210c0 5.522 4.477 10 10 10s10-4.478 10-10v-30h186v30c0 5.522 4.477 10 10 10s10-4.478 10-10v-30h160v30c0 5.522 4.477 10 10 10s10-4.478 10-10v-30h46v30c0 5.522 4.477 10 10 10s10-4.478 10-10c0-3.538 0-202.22 0-210h10c5.523 0 10-4.478 10-10v-60c0-5.522-4.477-10-10-10zm-256-130c0-16.542 13.458-30 30-30h100c16.542 0 30 13.458 30 30v130h-160zm-80 130h-40v-120h40zm-100-120h40v120h-40zm406 360h-432v-160h432zm20-180h-472v-40h472z"/><path d="m96 396h320c5.523 0 10-4.478 10-10v-60c0-5.522-4.477-10-10-10h-320c-5.523 0-10 4.478-10 10v60c0 5.522 4.477 10 10 10z"/></g></svg>