<svg id="Capa_1" enable-background="new 0 0 512 512" height="512" viewBox="0 0 512 512" width="512" xmlns="http://www.w3.org/2000/svg"><g><path d="m60 328.427v163.573h-30c-5.523 0-10 4.478-10 10s4.477 10 10 10h320c5.522 0 10-4.478 10-10s-4.478-10-10-10h-30v-46h62c55.141 0 100-44.859 100-100v-141.266c17.233-4.452 30-20.13 30-38.734 0-22.056-17.944-40-40-40s-40 17.944-40 40c0 18.604 12.767 34.282 30 38.734v141.266c0 44.112-35.888 80-80 80h-62v-97.572c36.908-34.682 60-83.905 60-138.428 0-104.767-85.233-190-190-190-104.766 0-190 85.233-190 190 0 54.522 23.092 103.746 60 138.427zm392-162.427c0-11.028 8.972-20 20-20s20 8.972 20 20-8.972 20-20 20-20-8.972-20-20zm-152 326h-220v-147.162c31.063 22.132 69.038 35.162 110 35.162s78.937-13.03 110-35.162zm-110-472c93.738 0 170 76.262 170 170s-76.262 170-170 170-170-76.262-170-170 76.262-170 170-170z"/><path d="m80 190c0-60.654 49.346-110 110-110 5.523 0 10-4.478 10-10s-4.477-10-10-10c-71.682 0-130 58.317-130 130 0 5.522 4.477 10 10 10s10-4.478 10-10z"/><path d="m140 190c0 27.57 22.43 50 50 50s50-22.43 50-50-22.43-50-50-50-50 22.43-50 50z"/></g></svg>