<svg id="Capa_1" enable-background="new 0 0 512 512" height="512" viewBox="0 0 512 512" width="512" xmlns="http://www.w3.org/2000/svg"><g><path d="m376 186c-5.522 0-10 4.478-10 10s4.478 10 10 10h60c5.522 0 10-4.478 10-10s-4.478-10-10-10z"/><path d="m376 0h-240c-5.522 0-10 4.478-10 10v56h-30c-16.542 0-30 13.458-30 30v30h-56c-5.522 0-10 4.478-10 10v180c0 5.522 4.478 10 10 10h116v176c0 5.522 4.478 10 10 10h240c5.522 0 10-4.478 10-10v-176h116c5.522 0 10-4.478 10-10v-180c0-5.522-4.478-10-10-10h-56v-30c0-16.542-13.458-30-30-30h-30v-56c0-5.522-4.478-10-10-10zm-230 20h220v106h-220zm-60 76c0-5.514 4.486-10 10-10h30v40h-40zm280 396h-220v-226h220zm126-186h-106v-50c0-5.522-4.478-10-10-10h-240c-5.522 0-10 4.478-10 10v50h-106v-160h472zm-76-220c5.514 0 10 4.486 10 10v30h-40v-40z"/><path d="m316 426h-120c-5.522 0-10 4.478-10 10s4.478 10 10 10h120c5.522 0 10-4.478 10-10s-4.478-10-10-10z"/><path d="m316 306h-120c-5.522 0-10 4.478-10 10v60c0 5.522 4.478 10 10 10h120c5.522 0 10-4.478 10-10v-60c0-5.522-4.478-10-10-10z"/></g></svg>