<svg id="Capa_1" enable-background="new 0 0 512 512" height="512" viewBox="0 0 512 512" width="512" xmlns="http://www.w3.org/2000/svg"><g><path d="m126 382c0 71.683 58.318 130 130 130s130-58.317 130-130c0-61.291-42.638-112.804-99.808-126.453l74.953-44.972c3.012-1.808 4.855-5.063 4.855-8.575v-192c0-5.522-4.477-10-10-10h-200c-5.523 0-10 4.478-10 10v192c0 3.513 1.843 6.768 4.855 8.575l74.953 44.972c-57.17 13.649-99.808 65.162-99.808 126.453zm130-131.662-30-18v-212.338h60v212.338zm90-54-40 24v-200.338h40zm-180-176.338h40v200.338l-40-24zm90 252c60.654 0 110 49.346 110 110s-49.346 110-110 110-110-49.346-110-110 49.346-110 110-110z"/><path d="m216.532 394.823-5.664 34.078c-.621 3.736.922 7.503 3.987 9.729 3.07 2.231 7.132 2.528 10.485.785l30.66-15.914 30.66 15.915c3.362 1.747 7.421 1.441 10.485-.785 3.064-2.227 4.608-5.993 3.987-9.729l-5.664-34.078 24.612-24.239c2.699-2.658 3.664-6.612 2.494-10.215s-4.276-6.234-8.021-6.799l-34.159-5.145-15.449-30.898c-1.695-3.388-5.157-5.528-8.945-5.528s-7.25 2.14-8.944 5.527l-15.449 30.898-34.159 5.145c-3.746.564-6.851 3.196-8.021 6.799s-.205 7.557 2.494 10.215z"/></g></svg>