<svg id="Capa_1" enable-background="new 0 0 512 512" height="512" viewBox="0 0 512 512" width="512" xmlns="http://www.w3.org/2000/svg"><g><path d="m492 376c0-5.514 4.486-10 10-10 5.523 0 10-4.478 10-10s-4.477-10-10-10h-60c-5.514 0-10-4.486-10-10v-80c0-5.514 4.486-10 10-10 5.523 0 10-4.478 10-10s-4.477-10-10-10h-108.834c6.926-5.626 13.679-12.326 20.027-19.974 20.542-24.751 32.807-54.668 32.807-80.026 0-37.457-18.266-65.097-50.114-75.832-23.25-7.838-50.445-5.273-69.886 5.055v-5.223c0-16.542 13.455-30 29.994-30 5.523 0 10.003-4.478 10.003-10s-4.48-10-10.003-10c-27.567 0-49.994 22.43-49.994 50v5.205c-19.438-10.35-46.614-12.936-69.832-5.11-31.882 10.747-50.168 38.413-50.168 75.905 0 25.358 12.265 55.275 32.808 80.026 6.347 7.648 13.101 14.348 20.027 19.974h-108.835c-38.598 0-70 31.401-70 70s31.402 69.99 70 69.99h11.077c-12.993 12.715-21.077 30.437-21.077 50.01 0 38.599 31.402 70 70 70h56v16c0 3.688 2.03 7.076 5.281 8.816 3.251 1.741 7.196 1.55 10.266-.496l24.453-16.301 24.453 16.302c3.021 2.015 6.968 2.262 10.266.496 3.251-1.74 5.281-5.129 5.281-8.816v-16h236c5.523 0 10-4.478 10-10s-4.477-10-10-10c-5.514 0-10-4.486-10-10zm-317.803-182.747c-17.656-21.274-28.197-46.414-28.197-67.253 0-36.888 19.88-51.331 36.557-56.953 24.221-8.164 51.709-1.356 63.443 10.66v16.293c0 5.522 4.477 10 10 10s10-4.478 10-10v-16.295c11.55-11.812 38.958-18.855 63.498-10.583 16.652 5.611 36.502 20.036 36.502 56.878 0 20.839-10.541 45.979-28.197 67.253-16.765 20.199-36.615 32.747-51.803 32.747h-60c-15.188 0-35.037-12.548-51.803-32.747zm-104.197 152.747c-27.57 0-50-22.43-50-50s22.43-50.01 50-50.01h343.72c-1.11 3.13-1.72 6.494-1.72 10v30.01h-342c-5.523 0-10 4.478-10 10s4.477 10 10 10h342v30c0 3.506.61 6.87 1.72 10-18.288 0-338.439 0-343.72 0zm60 120c-27.57 0-50-22.43-50-50s22.43-50.01 50-50.01h343.72c-1.11 3.13-1.72 6.494-1.72 10v30.01h-342c-5.523 0-10 4.478-10 10s4.477 10 10 10h56v40zm136 0v-40h206v30c0 3.506.61 6.87 1.72 10z"/></g></svg>