<svg id="Capa_1" enable-background="new 0 0 511.967 511.967" height="512" viewBox="0 0 511.967 511.967" width="512" xmlns="http://www.w3.org/2000/svg"><g><path d="m440.76 14.621c-19.494-19.494-51.216-19.494-70.71 0-37.997 37.996-311.454 311.453-355.412 355.411-19.495 19.495-19.495 51.216 0 70.711l56.569 56.568c19.541 19.54 51.168 19.542 70.71 0l355.411-355.411c19.495-19.495 19.495-51.216 0-70.711zm42.426 113.136-355.411 355.411c-11.723 11.723-30.701 11.727-42.426 0l-56.568-56.568c-11.697-11.696-11.697-30.729 0-42.426l16.071-16.071 21.213 21.213c3.906 3.905 10.237 3.905 14.142 0s3.906-10.237 0-14.143l-21.213-21.213 28.284-28.284 35.355 35.355c3.906 3.905 10.237 3.904 14.142 0 3.905-3.905 3.905-10.237 0-14.143l-35.355-35.354 28.284-28.284 21.213 21.213c3.906 3.905 10.237 3.905 14.143 0 3.905-3.905 3.905-10.237 0-14.143l-21.213-21.213 28.284-28.284 35.355 35.355c3.906 3.905 10.237 3.904 14.142 0 3.905-3.905 3.905-10.237 0-14.143l-35.355-35.354 28.284-28.284 21.214 21.213c3.906 3.905 10.237 3.904 14.142 0 3.905-3.905 3.905-10.237 0-14.143l-21.213-21.213 28.284-28.284 35.355 35.355c3.906 3.905 10.237 3.905 14.142 0s3.905-10.237 0-14.143l-35.355-35.355 28.284-28.283 21.213 21.213c3.906 3.905 10.237 3.905 14.143 0 3.905-3.905 3.905-10.237 0-14.143l-21.213-21.213 70.639-70.639c11.697-11.698 30.73-11.698 42.426 0l56.568 56.568c11.698 11.698 11.698 30.731 0 42.427z"/><path d="m377.192 92.332c-11.697 11.697-11.697 30.729 0 42.427 11.725 11.725 30.701 11.725 42.427 0 11.697-11.697 11.697-30.729 0-42.427-11.724-11.723-30.702-11.726-42.427 0z"/></g></svg>