<svg id="Capa_1" enable-background="new 0 0 512 512" height="512" viewBox="0 0 512 512" width="512" xmlns="http://www.w3.org/2000/svg"><g><path d="m366 316v120c0 5.522 4.478 10 10 10h60c5.522 0 10-4.478 10-10v-120c0-5.522-4.478-10-10-10h-60c-5.522 0-10 4.478-10 10zm20 110v-40h40v40zm40-100v40h-40v-40z"/><g><path d="m256 186c-22.056 0-40 17.944-40 40s17.944 40 40 40 40-17.944 40-40-17.944-40-40-40z"/><path d="m136 306h-60c-5.523 0-10 4.478-10 10v120c0 5.522 4.477 10 10 10h60c5.523 0 10-4.478 10-10v-120c0-5.522-4.477-10-10-10zm-10 20v40h-40v-40zm-40 100v-40h40v40z"/><path d="m509.071 248.929-60-60c-1.876-1.875-4.419-2.929-7.071-2.929h-56v-10c0-3.344-1.671-6.466-4.453-8.32l-115.547-77.032v-30.648h50c5.522 0 10-4.478 10-10v-40c0-5.522-4.478-10-10-10h-60c-5.522 0-10 4.478-10 10v80.648l-115.547 77.032c-2.782 1.854-4.453 4.977-4.453 8.32v10h-56c-2.652 0-5.196 1.054-7.071 2.929l-60 60c-1.807 1.811-2.915 4.331-2.926 7.027-.001.014-.003.029-.003.044v246c0 5.522 4.477 10 10 10h492c5.522 0 10-4.478 10-10v-245.995c.002-2.627-1.068-5.216-2.929-7.076zm-71.214-42.929 40 40h-91.857v-40zm-171.857-186h40v20h-40zm-191.858 186h51.858v40h-91.858zm231.858 120v100h-40v-100zm-60 100h-40v-100h40zm-40 20h100v46h-100zm286 46h-166v-176c0-5.522-4.478-10-10-10h-120c-5.523 0-10 4.478-10 10v176h-166v-226h116c5.523 0 10-4.478 10-10v-74.648l110-73.333 110 73.333v74.648c0 5.522 4.478 10 10 10h116z"/></g></g></svg>