<svg id="Capa_1" enable-background="new 0 0 512 512" height="512" viewBox="0 0 512 512" width="512" xmlns="http://www.w3.org/2000/svg"><g><path d="m502 0c-13.875 0-478.125 0-492 0-5.523 0-10 4.477-10 10v432c0 5.523 4.477 10 10 10h50v40h-10c-5.523 0-10 4.477-10 10s4.477 10 10 10h40c5.523 0 10-4.477 10-10s-4.477-10-10-10h-10v-40h346v40h-10c-5.523 0-10 4.477-10 10s4.477 10 10 10h40c5.523 0 10-4.477 10-10s-4.477-10-10-10h-10v-40h56c5.523 0 10-4.477 10-10v-432c0-5.523-4.477-10-10-10zm-482 266h30c5.523 0 10-4.477 10-10v-60c0-5.523-4.477-10-10-10h-30v-166h226v412h-226zm472 166h-226v-166h30c5.523 0 10-4.477 10-10v-60c0-5.523-4.477-10-10-10h-30v-166h226z"/><path d="m70 86h126c5.523 0 10-4.477 10-10s-4.477-10-10-10h-126c-5.523 0-10 4.477-10 10s4.477 10 10 10z"/><path d="m196 146c5.523 0 10-4.477 10-10s-4.477-10-10-10h-126c-5.523 0-10 4.477-10 10s4.477 10 10 10z"/><path d="m316 146h120c5.523 0 10-4.477 10-10s-4.477-10-10-10h-120c-5.523 0-10 4.477-10 10s4.477 10 10 10z"/><path d="m316 86h120c5.523 0 10-4.477 10-10s-4.477-10-10-10h-120c-5.523 0-10 4.477-10 10s4.477 10 10 10z"/><path d="m176 372h-86c-5.523 0-10 4.477-10 10s4.477 10 10 10h86c5.523 0 10-4.477 10-10s-4.477-10-10-10z"/><path d="m416 372h-80c-5.523 0-10 4.477-10 10s4.477 10 10 10h80c5.523 0 10-4.477 10-10s-4.477-10-10-10z"/></g></svg>