<svg id="Capa_1" enable-background="new 0 0 512 512" height="512" viewBox="0 0 512 512" width="512" xmlns="http://www.w3.org/2000/svg"><g><path d="m10 186h116v10c0 5.523 4.478 10 10 10h55.381c5.309 9.153 14.132 16.025 24.619 18.734v61.266h-30v-10c0-5.523-4.478-10-10-10s-10 4.477-10 10v40c0 5.523 4.478 10 10 10s10-4.477 10-10v-10h30v46.667l-85 113.333h-15c-5.522 0-10 4.477-10 10s4.478 10 10 10h40c5.522 0 10-4.477 10-10s-4.478-10-10-10l60-80v80h-10c-5.522 0-10 4.477-10 10s4.478 10 10 10h40c5.522 0 10-4.477 10-10s-4.478-10-10-10h-10v-80l60 80c-5.522 0-10 4.477-10 10s4.478 10 10 10h19.999.009.012 19.98c5.522 0 10-4.477 10-10s-4.478-10-10-10h-15l-85-113.333v-127.933c10.487-2.709 19.31-9.581 24.619-18.734h45.381v10c0 5.523 4.478 10 10 10h186c5.522 0 10-4.477 10-10v-140c0-5.523-4.478-10-10-10h-186c-5.522 0-10 4.477-10 10v10h-140v-40h50c5.522 0 10-4.477 10-10s-4.478-10-10-10h-100c-5.522 0-10 4.477-10 10s4.478 10 10 10h30v40h-10c-5.522 0-10 4.477-10 10v10h-116c-5.522 0-10 4.477-10 10v60c0 5.523 4.478 10 10 10zm316-100h166v120h-166zm-180 20h160v80h-40c0-22.056-17.944-40-40-40s-40 17.944-40 40h-40zm-126 20h106v40h-106z"/></g></svg>