<svg id="Capa_1" enable-background="new 0 0 512 512" height="512" viewBox="0 0 512 512" width="512" xmlns="http://www.w3.org/2000/svg"><g><path d="m171.326 111.515c14.402-5.912 30.243-5.861 44.608.144l204.564 85.506c22.679 9.479 48.584-3.504 54.395-27.817 4.479-18.739-6.278-38.778-25.024-46.613l-203.082-84.887c-14.363-6.004-25.529-17.242-31.441-31.645-1.536-3.742-5.175-6.189-9.219-6.203-.011 0-.021 0-.032 0-4.031 0-7.671 2.422-9.227 6.144l-38.565 92.264c-1.56 3.731-.718 8.036 2.133 10.905s7.147 3.738 10.89 2.202zm284.116 53.183c-3.031 12.676-16.237 18.61-27.23 14.015l-134.083-56.046 54.67-20.501 93.356 39.022c9.8 4.096 15.512 14.203 13.287 23.51zm-247.849-132.351c8.16 10.457 18.909 18.699 31.481 23.954l82.79 34.606-54.671 20.501-43.546-18.202c-9.726-4.065-19.955-6.099-30.188-6.099-2.996 0-5.992.174-8.976.523z"/><path d="m56.095 364.284v97.716c0 27.57 22.43 50 50 50h120c27.57 0 50-22.43 50-50v-97.716c0-15.568 6.063-30.205 17.071-41.213 2.859-2.86 3.715-7.162 2.168-10.898-1.548-3.737-5.194-6.173-9.239-6.173h-240c-4.045 0-7.691 2.437-9.239 6.173-1.547 3.736-.691 8.038 2.168 10.898 11.008 11.009 17.071 25.645 17.071 41.213zm170 127.716h-120c-16.542 0-30-13.458-30-30v-16h180v16c0 16.542-13.458 30-30 30zm39.96-166c-6.501 11.562-9.96 24.657-9.96 38.284v61.716h-180v-40h30c5.522 0 10-4.477 10-10s-4.478-10-10-10h-30v-1.716c0-13.627-3.459-26.723-9.96-38.284z"/><path d="m166.095 266c22.056 0 40-17.944 40-40 0-19.414-27.12-50.62-32.558-56.679-1.896-2.114-4.603-3.321-7.442-3.321s-5.546 1.208-7.442 3.321c-5.438 6.059-32.558 37.265-32.558 56.679 0 22.056 17.944 40 40 40z"/></g></svg>