<svg id="Capa_1" enable-background="new 0 0 512 512" height="512" viewBox="0 0 512 512" width="512" xmlns="http://www.w3.org/2000/svg"><g><path d="m482 452h-10v-86h10c5.523 0 10-4.477 10-10s-4.477-10-10-10h-10v-120h10c5.523 0 10-4.477 10-10s-4.477-10-10-10h-10v-120h10c5.523 0 10-4.477 10-10s-4.477-10-10-10h-10v-56c0-5.523-4.477-10-10-10s-10 4.477-10 10v56h-106v-10c0-16.542-13.458-30-30-30-7.678 0-14.688 2.902-20 7.663-5.312-4.761-12.322-7.663-20-7.663-16.542 0-30 13.458-30 30v10h-80v-10c0-16.542-13.458-30-30-30s-30 13.458-30 30v10h-46v-56c0-5.523-4.477-10-10-10s-10 4.477-10 10v56h-10c-5.523 0-10 4.477-10 10s4.477 10 10 10h10v120h-10c-5.523 0-10 4.477-10 10s4.477 10 10 10h10v120h-10c-5.523 0-10 4.477-10 10s4.477 10 10 10h10v86h-10c-16.542 0-30 13.458-30 30s13.458 30 30 30h452c16.542 0 30-13.458 30-30s-13.458-30-30-30zm-166-406c5.514 0 10 4.486 10 10v40c0 5.514-4.486 10-10 10s-10-4.486-10-10v-40c0-5.514 4.486-10 10-10zm-50 10c0-5.514 4.486-10 10-10s10 4.486 10 10v40c0 5.514-4.486 10-10 10s-10-4.486-10-10zm-140 0c0-5.514 4.486-10 10-10s10 4.486 10 10v40c0 5.514-4.486 10-10 10s-10-4.486-10-10zm-66 30h46v10c0 16.542 13.458 30 30 30s30-13.458 30-30v-10h80v10c0 16.542 13.458 30 30 30 7.678 0 14.688-2.902 20-7.663 5.312 4.761 12.322 7.663 20 7.663 16.542 0 30-13.458 30-30v-10h106v120h-46v-10c0-16.542-13.458-30-30-30s-30 13.458-30 30v10h-40v-10c0-16.542-13.458-30-30-30s-30 13.458-30 30v10h-40v-10c0-16.542-13.458-30-30-30s-30 13.458-30 30v10h-86zm306 110c0-5.514 4.486-10 10-10s10 4.486 10 10v40c0 5.514-4.486 10-10 10s-10-4.486-10-10zm-100 0c0-5.514 4.486-10 10-10s10 4.486 10 10v40c0 5.514-4.486 10-10 10s-10-4.486-10-10zm-100 0c0-5.514 4.486-10 10-10s10 4.486 10 10v40c0 5.514-4.486 10-10 10s-10-4.486-10-10zm-106 30h86v10c0 16.542 13.458 30 30 30s30-13.458 30-30v-10h40v10c0 16.542 13.458 30 30 30s30-13.458 30-30v-10h40v10c0 16.542 13.458 30 30 30s30-13.458 30-30v-10h46v120h-46v-10c0-16.542-13.458-30-30-30s-30 13.458-30 30v10h-140v-10c0-16.542-13.458-30-30-30-7.678 0-14.688 2.902-20 7.663-5.312-4.761-12.322-7.663-20-7.663-16.542 0-30 13.458-30 30v10h-46zm306 110c0-5.514 4.486-10 10-10s10 4.486 10 10v40c0 5.514-4.486 10-10 10s-10-4.486-10-10zm-200 0c0-5.514 4.486-10 10-10s10 4.486 10 10v40c0 5.514-4.486 10-10 10s-10-4.486-10-10zm-40 0c0-5.514 4.486-10 10-10s10 4.486 10 10v40c0 5.514-4.486 10-10 10s-10-4.486-10-10zm-66 30h46v10c0 16.542 13.458 30 30 30 7.678 0 14.688-2.902 20-7.663 5.312 4.761 12.322 7.663 20 7.663 16.542 0 30-13.458 30-30v-10h140v10c0 16.542 13.458 30 30 30s30-13.458 30-30v-10h46v86h-392z"/></g></svg>