<svg id="Capa_1" enable-background="new 0 0 512 512" height="512" viewBox="0 0 512 512" width="512" xmlns="http://www.w3.org/2000/svg"><g><path d="m376 512c38.598 0 70-31.402 70-70v-372c0-38.598-31.402-70-70-70h-300c-5.523 0-10 4.477-10 10v492c0 5.523 4.477 10 10 10zm50-442v372c0 27.57-22.43 50-50 50h-230v-472h230c27.57 0 50 22.43 50 50zm-340-50h40v472h-40z"/><path d="m196 80h180c5.523 0 10-4.477 10-10s-4.477-10-10-10h-180c-5.523 0-10 4.477-10 10s4.477 10 10 10z"/><path d="m376 120h-120c-5.523 0-10 4.477-10 10s4.477 10 10 10h120c5.523 0 10-4.477 10-10s-4.477-10-10-10z"/><path d="m376 392h-100c-5.523 0-10 4.477-10 10v40c0 5.523 4.477 10 10 10h100c5.523 0 10-4.477 10-10v-40c0-5.523-4.477-10-10-10z"/></g></svg>