<svg id="Capa_1" enable-background="new 0 0 512 512" height="512" viewBox="0 0 512 512" width="512" xmlns="http://www.w3.org/2000/svg"><g><path d="m326 0c-33.084 0-60 26.916-60 60h-30c-82.71 0-150 67.29-150 150v137.72c-11.639 4.128-20 15.243-20 28.28v126c0 5.523 4.477 10 10 10h220c5.523 0 10-4.477 10-10v-20c0-27.57-22.43-50-50-50h-10v-10c0-5.523-4.477-10-10-10s-10 4.477-10 10v10h-60v-56c0-13.036-8.361-24.152-20-28.28v-137.72c0-52.991 32.897-90 80-90h40v20h-10c-27.57 0-50 22.43-50 50v20c0 5.523 4.477 10 10 10h70c0 22.056 17.944 40 40 40s40-17.944 40-40h70c5.523 0 10-4.477 10-10v-20c0-27.57-22.43-50-50-50h-10v-80c0-33.084-26.916-60-60-60zm-40 482v10h-200v-40h170c16.542 0 30 13.458 30 30zm-200-50v-56c0-5.514 4.486-10 10-10h40c5.514 0 10 4.486 10 10v56zm140-332c-57.944 0-100 46.262-100 110v136h-20v-136c0-71.682 58.318-130 130-130h30v20zm60-40c0-22.056 17.944-40 40-40s40 17.944 40 40v80h-80zm140 130v10h-200v-10c0-16.542 13.458-30 30-30h140c16.542 0 30 13.458 30 30z"/></g></svg>