<svg id="Capa_1" enable-background="new 0 0 512.002 512.002" height="512" viewBox="0 0 512.002 512.002" width="512" xmlns="http://www.w3.org/2000/svg"><g><path d="m90.001 166.001h206c5.523 0 10-4.477 10-10s-4.477-10-10-10h-206c-5.523 0-10 4.477-10 10s4.477 10 10 10z"/><path d="m306.001 216.001c0-5.523-4.477-10-10-10h-206c-5.523 0-10 4.477-10 10s4.477 10 10 10h206c5.523 0 10-4.477 10-10z"/><path d="m360.454 266.275c16.774-24.264 25.547-51.662 25.547-80.274 0-93.659-94.439-160-193-160-99.025 0-193 66.71-193 160 0 37.902 17.779 78.801 45.234 103.875-9.656 16.19-23.262 28.958-39.706 37.181-4.148 2.074-6.326 6.728-5.26 11.242s5.095 7.703 9.732 7.703h30c22.976 0 44.009-4.78 62.604-17.802.106.034 36.186 17.586 89.514 17.792-4.034 9.63-6.119 19.702-6.119 30.01 0 71.379 90.689 110 163 110 24.936 0 50.94-3.893 72.15-10.745 13.825 7.042 28.977 10.745 44.096 10.745h36.754c4.638 0 8.667-3.188 9.732-7.702s-1.112-9.168-5.26-11.242c-10.835-5.418-20.555-13.045-28.989-22.734 22.341-19.368 34.517-43.319 34.517-68.321.001-67.348-81.863-106.421-151.546-109.728zm-167.453 59.726c-28.61 0-60.321-5.81-87.23-18.514-3.566-1.681-7.649-1.027-10.46 1.192-13.933 10.712-27.811 16.639-53.606 17.284 10.026-9.414 18.437-20.683 24.906-33.476 2.349-4.393 1.244-9.33-2.042-12.296-30.829-27.82-44.566-61.404-44.566-94.19 0-77.196 77.607-140 173-140s173 62.804 173 140c0 29.053-10.666 56.771-30.878 80.406-37.027 2.134-71.806 12.768-99.13 30.494-13.191 8.557-23.953 18.318-32.07 28.925-3.583.112-7.832.175-10.924.175zm264.504 108.721c-4.412 3.271-5.359 9.488-2.123 13.926 4.66 6.387 9.734 12.179 15.201 17.354h-5.337c-13.146 0-26.371-3.563-38.247-10.304-2.521-1.431-5.538-1.696-8.265-.733-19.87 7.014-45.287 11.037-69.733 11.037-77.514 0-143-41.215-143-90s65.486-90 143-90 143 41.215 143 90c0 21.369-12.251 42.223-34.496 58.72z"/><path d="m299.001 346.001c-16.542 0-30 13.458-30 30s13.458 30 30 30 30-13.458 30-30-13.458-30-30-30z"/><path d="m399.001 346.001c-16.542 0-30 13.458-30 30s13.458 30 30 30 30-13.458 30-30-13.458-30-30-30z"/></g></svg>