<svg id="Capa_1" enable-background="new 0 0 512 512" height="512" viewBox="0 0 512 512" width="512" xmlns="http://www.w3.org/2000/svg"><g><path d="m126 432.621v69.379c0 5.523 4.477 10 10 10h40c5.523 0 10-4.477 10-10v-36h140v36c0 5.523 4.478 10 10 10h40c5.522 0 10-4.477 10-10v-69.379c0-66.353-28.594-131.207-79.585-176.615 49.875-44.352 79.585-108.839 79.585-176.627v-69.379c0-5.523-4.478-10-10-10h-40c-5.522 0-10 4.477-10 10v36h-140v-36c0-5.523-4.477-10-10-10h-40c-5.523 0-10 4.477-10 10v69.379c0 66.355 28.595 131.209 79.585 176.615-49.875 44.352-79.585 108.839-79.585 176.627zm130.002-140.446c12.939 9.782 24.323 21.187 33.949 33.825h-67.809c9.634-12.676 20.998-24.089 33.86-33.825zm-47.054 53.825h94.205c7.117 12.575 12.679 26.008 16.533 40h-127.302c3.879-13.987 9.448-27.429 16.564-40zm-22.948 100v-13.379c0-8.976.718-17.87 2.075-26.621h135.894c1.342 8.743 2.031 17.639 2.031 26.621v13.379zm180-13.379v59.379h-20v-59.379c0-56.758-25.345-113.667-72.532-152.139 5.936-3.645 11.683-7.535 17.222-11.66 47.286 40.825 75.31 101.464 75.31 163.799zm-62.948-266.621h-94.204c-7.118-12.575-12.679-26.008-16.533-40.01h127.302c-3.88 13.997-9.449 27.439-16.565 40.01zm-13.194 20c-9.634 12.676-20.998 24.089-33.86 33.825-12.939-9.782-24.323-21.187-33.949-33.825zm36.142-120v13.379c0 8.976-.718 17.87-2.075 26.621h-135.894c-1.342-8.743-2.031-17.639-2.031-26.621v-13.379zm-180 13.379v-59.379h20v59.379c0 58.354 26.573 114.667 72.532 152.139-5.936 3.645-11.683 7.535-17.222 11.66-47.285-40.826-75.31-101.465-75.31-163.799z"/></g></svg>