<svg id="Capa_1" enable-background="new 0 0 512 512" height="512" viewBox="0 0 512 512" width="512" xmlns="http://www.w3.org/2000/svg"><g><path d="m126 190v192c0 71.682 58.317 130 130 130s130-58.318 130-130c0-8.071 0-185.744 0-192 0-5.523-4.478-10-10-10h-60c-5.522 0-10 4.477-10 10v192c0 27.57-22.43 50-50 50s-50-22.43-50-50c0-8.071 0-185.744 0-192 0-5.523-4.478-10-10-10h-60c-5.522 0-10 4.477-10 10zm130 262c38.599 0 70-31.402 70-70v-122h40v122c0 60.654-49.346 110-110 110s-110-49.346-110-110v-122h40v122c0 38.598 31.401 70 70 70z"/><path d="m390.289 55.711c-35.926-35.926-83.617-55.711-134.289-55.711s-98.363 19.785-134.289 55.711c-3.905 3.905-3.905 10.237 0 14.142 3.906 3.905 10.236 3.905 14.143 0 32.147-32.148 74.816-49.853 120.146-49.853s87.999 17.705 120.146 49.853c3.905 3.905 10.235 3.906 14.143 0 3.905-3.905 3.905-10.236 0-14.142z"/><path d="m347.886 112.257c3.905-3.905 3.905-10.237 0-14.143-24.579-24.578-57.211-38.114-91.886-38.114s-67.307 13.536-91.886 38.114c-3.905 3.905-3.905 10.237 0 14.143 3.906 3.905 10.236 3.905 14.143 0 20.801-20.801 48.41-32.257 77.743-32.257s56.942 11.456 77.743 32.257c3.906 3.905 10.236 3.905 14.143 0z"/><path d="m206.502 140.502c-3.905 3.905-3.905 10.237 0 14.142 3.906 3.906 10.236 3.906 14.143 0 9.444-9.444 22-14.645 35.355-14.645s25.911 5.201 35.355 14.645c3.905 3.904 10.237 3.906 14.143 0 3.905-3.905 3.905-10.237 0-14.142-13.223-13.221-30.801-20.502-49.498-20.502s-36.275 7.281-49.498 20.502z"/></g></svg>