<svg id="Capa_1" enable-background="new 0 0 512 512" height="512" viewBox="0 0 512 512" width="512" xmlns="http://www.w3.org/2000/svg"><g><path d="m366 512c27.57 0 50-22.43 50-50v-412c0-27.57-22.43-50-50-50h-220c-27.57 0-50 22.43-50 50v412c0 27.57 22.43 50 50 50zm-250-366h280v200h-280zm30-126h220c16.542 0 30 13.458 30 30v76h-280v-76c0-16.542 13.458-30 30-30zm-30 442v-96h280v96c0 16.542-13.458 30-30 30h-220c-16.542 0-30-13.458-30-30z"/><path d="m346 186h-180c-5.523 0-10 4.477-10 10v40c0 5.523 4.477 10 10 10h180c5.523 0 10-4.477 10-10v-40c0-5.523-4.477-10-10-10z"/><path d="m346 286h-180c-5.523 0-10 4.477-10 10s4.477 10 10 10h180c5.523 0 10-4.477 10-10s-4.477-10-10-10z"/></g></svg>