<svg id="Capa_1" enable-background="new 0 0 512 512" height="512" viewBox="0 0 512 512" width="512" xmlns="http://www.w3.org/2000/svg"><g><path d="m70 446h372c38.598 0 70-31.402 70-70 0-5.523-4.478-10-10-10h-10v-250c0-27.57-22.43-50-50-50h-372c-27.57 0-50 22.43-50 50v250h-10c-5.522 0-10 4.477-10 10 0 38.598 31.402 70 70 70zm372-20h-372c-24.146 0-44.35-17.216-48.995-40.01h469.99c-4.645 22.794-24.849 40.01-48.995 40.01zm-402-310c0-16.542 13.458-30 30-30h372c16.542 0 30 13.458 30 30v250h-432z"/><path d="m276 126h-186c-5.522 0-10 4.477-10 10v180c0 5.523 4.478 10 10 10h186c5.522 0 10-4.477 10-10v-180c0-5.523-4.478-10-10-10zm-10 180h-166v-160h166z"/><path d="m422 246h-86c-5.522 0-10 4.477-10 10s4.478 10 10 10h86c5.522 0 10-4.477 10-10s-4.478-10-10-10z"/><path d="m422 306h-86c-5.522 0-10 4.477-10 10s4.478 10 10 10h86c5.522 0 10-4.477 10-10s-4.478-10-10-10z"/><path d="m422 186h-86c-5.522 0-10 4.477-10 10s4.478 10 10 10h86c5.522 0 10-4.477 10-10s-4.478-10-10-10z"/><path d="m422 126h-86c-5.522 0-10 4.477-10 10s4.478 10 10 10h86c5.522 0 10-4.477 10-10s-4.478-10-10-10z"/><path d="m147.743 264.506c2.948 1.823 6.63 1.987 9.729.438l60-30c3.388-1.694 5.528-5.156 5.528-8.944s-2.14-7.25-5.528-8.944l-60-30c-3.098-1.549-6.78-1.385-9.729.438-2.948 1.821-4.743 5.04-4.743 8.506v60c0 3.466 1.795 6.685 4.743 8.506z"/></g></svg>