<svg id="Capa_1" enable-background="new 0 0 512 512" height="512" viewBox="0 0 512 512" width="512" xmlns="http://www.w3.org/2000/svg"><g><path d="m466 276c0-29.308-6.044-57.228-16.936-82.592 22.705-14.575 36.936-40.073 36.936-67.408 0-44.112-35.888-80-80-80-27.335 0-52.833 14.231-67.408 36.936-22.463-9.646-46.931-15.483-72.592-16.692v-46.244h30c5.523 0 10-4.477 10-10s-4.477-10-10-10h-80c-5.523 0-10 4.477-10 10s4.477 10 10 10h30v46.244c-25.661 1.209-50.129 7.046-72.592 16.692-14.575-22.705-40.073-36.936-67.408-36.936-44.112 0-80 35.888-80 80 0 27.335 14.231 52.833 36.936 67.408-10.892 25.364-16.936 53.284-16.936 82.592 0 77.331 42.021 145.023 104.422 181.468l-20.163 34.532h-34.259c-5.523 0-10 4.477-10 10 0 5.522 4.477 10 10 10h40c3.555 0 6.843-1.888 8.636-4.958l23.54-40.314c26.736 12.36 56.486 19.272 87.824 19.272s61.088-6.912 87.824-19.272l23.54 40.314c1.793 3.07 5.081 4.958 8.636 4.958h40c5.523 0 10-4.478 10-10 0-5.523-4.477-10-10-10h-34.259l-20.163-34.532c62.401-36.445 104.422-104.137 104.422-181.468zm-60-210c33.084 0 60 26.916 60 60 0 19.719-9.874 38.163-25.781 49.273-19.293-35.144-48.348-64.199-83.492-83.492 11.11-15.907 29.554-25.781 49.273-25.781zm-360 60c0-33.084 26.916-60 60-60 19.719 0 38.163 9.874 49.273 25.781-35.144 19.293-64.199 48.348-83.492 83.492-15.907-11.11-25.781-29.554-25.781-49.273zm210 340c-104.767 0-190-85.233-190-190s85.233-190 190-190 190 85.233 190 190-85.233 190-190 190z"/><path d="m256 126c-82.71 0-150 67.29-150 150s67.29 150 150 150 150-67.29 150-150-67.29-150-150-150zm10 279.619v-9.619c0-5.523-4.477-10-10-10s-10 4.477-10 10v9.619c-63.727-4.871-114.748-55.892-119.619-119.619h9.619c5.523 0 10-4.477 10-10s-4.477-10-10-10h-9.619c4.871-63.727 55.892-114.748 119.619-119.619v9.619c0 5.523 4.477 10 10 10s10-4.477 10-10v-9.619c63.727 4.871 114.748 55.892 119.619 119.619h-9.619c-5.523 0-10 4.477-10 10s4.477 10 10 10h9.619c-4.871 63.727-55.892 114.748-119.619 119.619z"/><path d="m283.275 288.47c1.745-3.8 2.725-8.021 2.725-12.47 0-13.108-8.454-24.273-20.194-28.346l.194-50.884c.021-5.523-4.439-10.017-9.962-10.038-.013 0-.026 0-.039 0-5.504 0-9.978 4.452-9.999 9.962l-.195 51.092c-11.538 4.183-19.805 15.25-19.805 28.214 0 16.542 13.458 30 30 30 4.8 0 9.337-1.139 13.364-3.152l21.522 19.783c1.921 1.766 4.346 2.638 6.765 2.638 2.7 0 5.393-1.088 7.365-3.233 3.737-4.066 3.471-10.392-.595-14.129z"/></g></svg>