<?xml version="1.0" encoding="UTF-8" standalone="no"?>
<svg
   xmlns:dc="http://purl.org/dc/elements/1.1/"
   xmlns:cc="http://creativecommons.org/ns#"
   xmlns:rdf="http://www.w3.org/1999/02/22-rdf-syntax-ns#"
   xmlns:svg="http://www.w3.org/2000/svg"
   xmlns="http://www.w3.org/2000/svg"
   xmlns:sodipodi="http://sodipodi.sourceforge.net/DTD/sodipodi-0.dtd"
   xmlns:inkscape="http://www.inkscape.org/namespaces/inkscape"
   id="Capa_1"
   enable-background="new 0 0 512 512"
   height="512"
   viewBox="0 0 512 512"
   width="512"
   version="1.1"
   sodipodi:docname="024-schedule.svg"
   inkscape:version="0.92.5 (2060ec1f9f, 2020-04-08)">
  <metadata
     id="metadata33">
    <rdf:RDF>
      <cc:Work
         rdf:about="">
        <dc:format>image/svg+xml</dc:format>
        <dc:type
           rdf:resource="http://purl.org/dc/dcmitype/StillImage" />
      </cc:Work>
    </rdf:RDF>
  </metadata>
  <defs
     id="defs31" />
  <sodipodi:namedview
     pagecolor="#ffffff"
     bordercolor="#666666"
     borderopacity="1"
     objecttolerance="10"
     gridtolerance="10"
     guidetolerance="10"
     inkscape:pageopacity="0"
     inkscape:pageshadow="2"
     inkscape:window-width="1920"
     inkscape:window-height="1022"
     id="namedview29"
     showgrid="false"
     inkscape:zoom="0.32593203"
     inkscape:cx="-701.97769"
     inkscape:cy="68.066635"
     inkscape:window-x="0"
     inkscape:window-y="27"
     inkscape:window-maximized="1"
     inkscape:current-layer="Capa_1" />
  <g
     id="g26"
     style="fill:#5480ab;fill-opacity:1">
    <path
       d="m166 226h-60c-5.522 0-10 4.477-10 10s4.478 10 10 10h60c5.522 0 10-4.477 10-10s-4.478-10-10-10z"
       id="path2"
       style="fill:#5480ab;fill-opacity:1" />
    <path
       d="m166 286h-60c-5.522 0-10 4.477-10 10s4.478 10 10 10h60c5.522 0 10-4.477 10-10s-4.478-10-10-10z"
       id="path4"
       style="fill:#5480ab;fill-opacity:1" />
    <path
       d="m286 226h-60c-5.522 0-10 4.477-10 10s4.478 10 10 10h60c5.522 0 10-4.477 10-10s-4.478-10-10-10z"
       id="path6"
       style="fill:#5480ab;fill-opacity:1" />
    <path
       d="m286 286h-60c-5.522 0-10 4.477-10 10s4.478 10 10 10h60c5.522 0 10-4.477 10-10s-4.478-10-10-10z"
       id="path8"
       style="fill:#5480ab;fill-opacity:1" />
    <path
       d="m406 226h-60c-5.522 0-10 4.477-10 10s4.478 10 10 10h60c5.522 0 10-4.477 10-10s-4.478-10-10-10z"
       id="path10"
       style="fill:#5480ab;fill-opacity:1" />
    <path
       d="m406 286h-60c-5.522 0-10 4.477-10 10s4.478 10 10 10h60c5.522 0 10-4.477 10-10s-4.478-10-10-10z"
       id="path12"
       style="fill:#5480ab;fill-opacity:1" />
    <path
       d="m406 346h-60c-5.522 0-10 4.477-10 10s4.478 10 10 10h60c5.522 0 10-4.477 10-10s-4.478-10-10-10z"
       id="path14"
       style="fill:#5480ab;fill-opacity:1" />
    <path
       d="m286 346h-60c-5.522 0-10 4.477-10 10s4.478 10 10 10h60c5.522 0 10-4.477 10-10s-4.478-10-10-10z"
       id="path16"
       style="fill:#5480ab;fill-opacity:1" />
    <path
       d="m286 406h-60c-5.522 0-10 4.477-10 10s4.478 10 10 10h60c5.522 0 10-4.477 10-10s-4.478-10-10-10z"
       id="path18"
       style="fill:#5480ab;fill-opacity:1" />
    <path
       d="m166 406h-60c-5.522 0-10 4.477-10 10s4.478 10 10 10h60c5.522 0 10-4.477 10-10s-4.478-10-10-10z"
       id="path20"
       style="fill:#5480ab;fill-opacity:1" />
    <path
       d="m166 346h-60c-5.522 0-10 4.477-10 10s4.478 10 10 10h60c5.522 0 10-4.477 10-10s-4.478-10-10-10z"
       id="path22"
       style="fill:#5480ab;fill-opacity:1" />
    <path
       d="m146 0h-40c-5.522 0-10 4.477-10 10v30h-50c-5.522 0-10 4.477-10 10v452c0 5.522 4.478 10 10 10h420c5.522 0 10-4.478 10-10v-452c0-5.523-4.478-10-10-10h-50v-30c0-5.523-4.478-10-10-10h-40c-5.522 0-10 4.477-10 10v30h-200v-30c0-5.523-4.478-10-10-10zm-90 492v-332h400v332zm300-432v10c0 16.542 13.458 30 30 30s30-13.458 30-30v-10h40v80h-400v-80h40v10c0 16.542 13.458 30 30 30s30-13.458 30-30v-10z"
       id="path24"
       style="fill:#5480ab;fill-opacity:1" />
  </g>
</svg>
