<svg id="Capa_1" enable-background="new 0 0 512.003 512.003" height="512" viewBox="0 0 512.003 512.003" width="512" xmlns="http://www.w3.org/2000/svg"><g><path d="m86.001 372c-5.522 0-10 4.477-10 10s4.478 10 10 10h45.741l-10.775 31.146c-.977 2.821-.641 5.931.914 8.479l24.205 39.664-9.531 27.429c-1.813 5.217.947 10.915 6.164 12.729 5.239 1.817 10.921-.965 12.729-6.164.284-.796 4.536-13.051 39.365-113.282h51.188v10c0 5.523 4.478 10 10 10s10-4.477 10-10v-10h51.188c1.43 4.163 38.362 110.393 39.365 113.282 1.816 5.225 7.517 7.973 12.729 6.164 5.217-1.813 7.977-7.512 6.164-12.729l-9.531-27.429 24.205-39.664c1.555-2.548 1.891-5.658.914-8.479l-10.774-31.146h45.741c5.522 0 10-4.477 10-10s-4.478-10-10-10h-52.66l-59.205-171.141c1.216-4.754 1.865-9.732 1.865-14.859 0-29.676-21.661-54.374-50-59.151v-28.115c17.233-4.452 30-20.13 30-38.734v-20c0-22.056-17.944-40-40-40s-40 17.944-40 40v20c0 18.604 12.767 34.282 30 38.734v28.115c-28.339 4.777-50 29.475-50 59.151 0 5.127.649 10.106 1.865 14.859l-59.206 171.141zm180 0v-10c0-5.523-4.478-10-10-10s-10 4.477-10 10v10h-44.238l44.089-126.876c3.302.565 6.689.876 10.149.876s6.847-.311 10.149-.876l44.09 126.876zm104.593 53.23-13.179 21.595-72.395-208.332c6.215-3.45 11.75-7.974 16.367-13.315 2.318 6.767 69.161 199.918 69.207 200.052zm-114.593-279.23c22.056 0 40 17.944 40 40s-17.944 40-40 40-40-17.944-40-40 17.945-40 40-40zm-29.018 92.493-72.395 208.332-13.179-21.595c.05-.143 66.72-192.793 69.207-200.053 4.617 5.342 10.152 9.866 16.367 13.316z"/></g></svg>