<svg id="Capa_1" enable-background="new 0 0 512 512" height="512" viewBox="0 0 512 512" width="512" xmlns="http://www.w3.org/2000/svg"><g><path d="m482 225.949h-68.035c-18.237-35.588-55.304-60-97.965-60s-79.728 24.412-97.965 60h-188.035c-16.542 0-30 13.458-30 30v140c0 16.542 13.458 30 30 30h30v30c0 5.522 4.477 10 10 10s10-4.478 10-10v-30h346v30c0 5.522 4.477 10 10 10s10-4.478 10-10v-30h36c16.542 0 30-13.458 30-30v-140c0-16.542-13.458-30-30-30zm-166-40c49.626 0 90 40.374 90 90s-40.374 90-90 90-90-40.374-90-90 40.374-90 90-90zm176 210c0 5.514-4.486 10-10 10h-452c-5.514 0-10-4.486-10-10v-140c0-5.514 4.486-10 10-10.01h180.159c-2.708 9.55-4.159 19.614-4.159 30.01 0 60.654 49.346 110 110 110s110-49.346 110-110c0-10.396-1.451-20.46-4.159-30h60.159c5.514 0 10 4.486 10 10z"/><path d="m478.635 127.457c3.905-3.905 3.905-10.237 0-14.143-43.376-43.375-101.134-67.263-162.635-67.263s-119.259 23.888-162.634 67.263c-3.905 3.905-3.906 10.237 0 14.143 3.906 3.904 10.238 3.905 14.142 0 39.597-39.598 92.333-61.406 148.492-61.406s108.895 21.808 148.493 61.405c3.905 3.906 10.236 3.905 14.142.001z"/><path d="m195.792 155.741c-3.905 3.905-3.905 10.237 0 14.143 3.905 3.904 10.237 3.904 14.143 0 28.282-28.282 65.951-43.858 106.066-43.858s77.784 15.576 106.066 43.858c3.906 3.905 10.237 3.905 14.143 0 3.905-3.905 3.905-10.237 0-14.143-66.285-66.283-174.135-66.283-240.418 0z"/><path d="m316 325.949c27.57 0 50-22.43 50-50s-22.43-50-50-50-50 22.43-50 50 22.43 50 50 50z"/><path d="m70 285.949c-5.523 0-10 4.478-10 10v60c0 5.522 4.477 10 10 10s10-4.478 10-10v-60c0-5.523-4.477-10-10-10z"/><path d="m110 285.949c-5.523 0-10 4.478-10 10v60c0 5.522 4.477 10 10 10s10-4.478 10-10v-60c0-5.523-4.477-10-10-10z"/><path d="m150 285.949c-5.523 0-10 4.478-10 10v60c0 5.522 4.477 10 10 10s10-4.478 10-10v-60c0-5.523-4.477-10-10-10z"/></g></svg>