<svg id="Capa_1" enable-background="new 0 0 512.039 512.039" height="512" viewBox="0 0 512.039 512.039" width="512" xmlns="http://www.w3.org/2000/svg"><g><path d="m159.757 142.719c-23.932-13.816-54.482-5.636-68.302 18.301-13.817 23.932-5.634 54.484 18.302 68.301 23.974 13.842 54.5 5.603 68.301-18.301 13.816-23.931 5.634-54.483-18.301-68.301zm.98 58.301c-8.29 14.358-26.62 19.271-40.98 10.98-14.359-8.289-19.274-26.619-10.981-40.98 8.249-14.288 26.621-19.272 40.981-10.98 14.359 8.29 19.272 26.62 10.98 40.98z"/><path d="m109.757 282.719c-23.932 13.815-32.12 44.366-18.302 68.301 13.786 23.879 44.319 32.148 68.302 18.301 23.931-13.816 32.119-44.366 18.301-68.301-13.817-23.931-44.367-32.119-68.301-18.301zm40 69.282c-14.361 8.289-32.689 3.38-40.981-10.98-8.29-14.358-3.381-32.689 10.981-40.98 14.385-8.305 32.705-3.351 40.98 10.98 8.291 14.358 3.38 32.688-10.98 40.98z"/><path d="m352.243 142.719c-23.931 13.816-32.119 44.366-18.301 68.301 13.784 23.874 44.301 32.158 68.301 18.301 23.932-13.815 32.12-44.366 18.302-68.301-13.816-23.93-44.367-32.121-68.302-18.301zm40 69.282c-14.36 8.288-32.689 3.38-40.98-10.98-8.291-14.359-3.38-32.689 10.98-40.98 14.385-8.305 32.706-3.351 40.981 10.98 8.291 14.357 3.381 32.688-10.981 40.98z"/><path d="m256 .02c-141.589 0-256 114.386-256 256 0 141.567 114.372 255.989 255.976 255.999h.011c63.97 0 116.014-52.037 116.014-115.999v-51.118c0-18.131 14.751-32.882 32.882-32.882h41.993c35.742 0 66.522-29.238 65.118-66.032-5.105-133.332-117.211-245.968-255.994-245.968zm190.875 292h-41.993c-29.159 0-52.882 23.723-52.882 52.882v51.118c0 52.934-43.071 95.999-96.014 95.999-130.118-.01-235.986-105.878-235.986-235.999 0-130.131 105.869-236 236-236 125.351 0 231.223 101.712 236.007 226.732.962 25.157-20.447 45.268-45.132 45.268z"/><path d="m256 66.02c-27.57 0-50 22.43-50 50s22.43 50 50 50 50-22.43 50-50-22.43-50-50-50zm0 80c-16.542 0-30-13.458-30-30s13.458-30 30-30 30 13.458 30 30-13.458 30-30 30z"/><path d="m256 346.02c-27.57 0-50 22.43-50 50s22.43 50 50 50 50-22.43 50-50-22.43-50-50-50zm0 80c-16.542 0-30-13.458-30-30s13.458-30 30-30 30 13.458 30 30-13.458 30-30 30z"/><path d="m286 256.02c0-16.542-13.458-30-30-30s-30 13.458-30 30 13.458 30 30 30 30-13.458 30-30z"/></g></svg>