<svg id="Capa_1" enable-background="new 0 0 512 512" height="512" viewBox="0 0 512 512" width="512" xmlns="http://www.w3.org/2000/svg"><g><path d="m336 0h-260c-5.523 0-10 4.478-10 10v196c0 33.084 26.916 60 60 60v236c0 5.522 4.477 10 10 10h300c5.523 0 10-4.478 10-10 0-21.989 0-397.121 0-426 0-5.522-4.477-10-10-10h-90v-56c0-5.522-4.477-10-10-10zm90 206c0 22.056-17.944 40-40 40s-40-17.944-40-40v-60h80zm-340 0v-186h240v186c0 15.353 5.796 29.377 15.315 40h-215.315c-22.056 0-40-17.944-40-40zm60 286v-226h240c15.355 0 29.376-5.805 40-15.327v241.327z"/><path d="m376 306h-180c-5.523 0-10 4.478-10 10s4.477 10 10 10h180c5.523 0 10-4.478 10-10s-4.477-10-10-10z"/><path d="m376 366h-180c-5.523 0-10 4.478-10 10s4.477 10 10 10h180c5.523 0 10-4.478 10-10s-4.477-10-10-10z"/><path d="m376 426h-180c-5.523 0-10 4.478-10 10s4.477 10 10 10h180c5.523 0 10-4.478 10-10s-4.477-10-10-10z"/></g></svg>