<svg id="Capa_1" enable-background="new 0 0 512 512" height="512" viewBox="0 0 512 512" width="512" xmlns="http://www.w3.org/2000/svg"><g><path d="m0 316v120c0 5.522 4.478 10 10 10h492c5.522 0 10-4.478 10-10v-60c0-5.522-4.478-10-10-10h-136v-110c0-5.522-4.478-10-10-10h-200c-5.522 0-10 4.478-10 10v50h-136c-5.522 0-10 4.478-10 10zm492 70v40h-126v-40zm-326-120h180v160h-180c0-19.374 0-140.632 0-160zm-146 60h126v100h-126z"/><path d="m236 366c-5.522 0-10 4.478-10 10s4.478 10 10 10h40c5.522 0 10-4.478 10-10s-4.478-10-10-10h-10v-40h10c5.522 0 10-4.478 10-10s-4.478-10-10-10h-40c-5.522 0-10 4.478-10 10s4.478 10 10 10h10v40z"/><path d="m322.573 114.369c-1.171-3.603-4.276-6.234-8.021-6.799l-34.158-5.145-15.449-30.897c-1.695-3.388-5.157-5.528-8.945-5.528-3.787 0-7.25 2.14-8.944 5.527l-15.449 30.898-34.159 5.145c-3.746.564-6.851 3.196-8.021 6.799s-.205 7.557 2.494 10.215l24.611 24.239-5.663 34.078c-.621 3.736.922 7.503 3.986 9.729 3.071 2.231 7.131 2.528 10.485.785l30.66-15.915 30.66 15.916c3.364 1.747 7.424 1.441 10.485-.785 3.064-2.227 4.607-5.993 3.986-9.729l-5.664-34.078 24.611-24.239c2.7-2.659 3.665-6.613 2.495-10.216z"/></g></svg>