<?xml version="1.0" encoding="UTF-8" standalone="no"?>
<svg
   xmlns:dc="http://purl.org/dc/elements/1.1/"
   xmlns:cc="http://creativecommons.org/ns#"
   xmlns:rdf="http://www.w3.org/1999/02/22-rdf-syntax-ns#"
   xmlns:svg="http://www.w3.org/2000/svg"
   xmlns="http://www.w3.org/2000/svg"
   xmlns:sodipodi="http://sodipodi.sourceforge.net/DTD/sodipodi-0.dtd"
   xmlns:inkscape="http://www.inkscape.org/namespaces/inkscape"
   id="Capa_1"
   enable-background="new 0 0 512 512"
   height="512"
   viewBox="0 0 512 512"
   width="512"
   version="1.1"
   sodipodi:docname="038-student card.svg"
   inkscape:version="0.92.5 (2060ec1f9f, 2020-04-08)">
  <metadata
     id="metadata23">
    <rdf:RDF>
      <cc:Work
         rdf:about="">
        <dc:format>image/svg+xml</dc:format>
        <dc:type
           rdf:resource="http://purl.org/dc/dcmitype/StillImage" />
      </cc:Work>
    </rdf:RDF>
  </metadata>
  <defs
     id="defs21" />
  <sodipodi:namedview
     pagecolor="#ffffff"
     bordercolor="#666666"
     borderopacity="1"
     objecttolerance="10"
     gridtolerance="10"
     guidetolerance="10"
     inkscape:pageopacity="0"
     inkscape:pageshadow="2"
     inkscape:window-width="1920"
     inkscape:window-height="1022"
     id="namedview19"
     showgrid="false"
     inkscape:zoom="0.32593203"
     inkscape:cx="231.93745"
     inkscape:cy="120.30177"
     inkscape:window-x="0"
     inkscape:window-y="27"
     inkscape:window-maximized="1"
     inkscape:current-layer="Capa_1" />
  <g
     id="g16"
     style="fill:#372f31;fill-opacity:1">
    <path
       d="m416 90c0-16.542-13.458-30-30-30h-90v-50c0-5.522-4.478-10-10-10h-60c-5.523 0-10 4.478-10 10v50h-90c-16.542 0-30 13.458-30 30v392c0 16.542 13.458 30 30 30h260c16.542 0 30-13.458 30-30zm-20 392c0 5.514-4.486 10-10 10h-260c-5.514 0-10-4.486-10-10v-392c0-5.514 4.486-10 10-10h90v30c0 5.522 4.477 10 10 10h60c5.522 0 10-4.478 10-10v-30h90c5.514 0 10 4.486 10 10z"
       id="path2"
       style="fill:#372f31;fill-opacity:1" />
    <path
       d="m296 206c0-22.056-17.944-40-40-40s-40 17.944-40 40 17.944 40 40 40 40-17.944 40-40zm-40 20c-11.028 0-20-8.972-20-20s8.972-20 20-20 20 8.972 20 20-8.972 20-20 20z"
       id="path4"
       style="fill:#372f31;fill-opacity:1" />
    <path
       d="m187.008 326h137.983c2.901 0 5.66-1.26 7.56-3.453s2.752-5.104 2.338-7.976c-5.605-38.829-38.727-68.571-78.889-68.571-40.182 0-73.287 29.76-78.889 68.571-.415 2.872.439 5.782 2.338 7.976s4.658 3.453 7.559 3.453zm68.992-60c25.486 0 47.938 16.551 56.27 40h-112.54c8.332-23.45 30.784-40 56.27-40z"
       id="path6"
       style="fill:#372f31;fill-opacity:1" />
    <path
       d="m166 386h20c5.523 0 10-4.478 10-10s-4.477-10-10-10h-20c-5.523 0-10 4.478-10 10s4.477 10 10 10z"
       id="path8"
       style="fill:#372f31;fill-opacity:1" />
    <path
       d="m246 366c-5.523 0-10 4.478-10 10s4.477 10 10 10h20c5.522 0 10-4.478 10-10s-4.478-10-10-10z"
       id="path10"
       style="fill:#372f31;fill-opacity:1" />
    <path
       d="m346 366h-20c-5.522 0-10 4.478-10 10s4.478 10 10 10h20c5.522 0 10-4.478 10-10s-4.478-10-10-10z"
       id="path12"
       style="fill:#372f31;fill-opacity:1" />
    <path
       d="m346 426h-180c-5.523 0-10 4.478-10 10s4.477 10 10 10h180c5.522 0 10-4.478 10-10s-4.478-10-10-10z"
       id="path14"
       style="fill:#372f31;fill-opacity:1" />
  </g>
</svg>
