<svg id="Capa_1" enable-background="new 0 0 512 512" height="512" viewBox="0 0 512 512" width="512" xmlns="http://www.w3.org/2000/svg"><g><path d="m120 246c-22.056 0-40 17.944-40 40s17.944 40 40 40 40-17.944 40-40-17.944-40-40-40z"/><path d="m392 246c-22.056 0-40 17.944-40 40s17.944 40 40 40 40-17.944 40-40-17.944-40-40-40z"/><path d="m322 306h-132c-5.522 0-10 4.478-10 10s4.478 10 10 10h132c5.522 0 10-4.478 10-10s-4.478-10-10-10z"/><path d="m322 246h-132c-5.522 0-10 4.478-10 10s4.478 10 10 10h132c5.522 0 10-4.478 10-10s-4.478-10-10-10z"/><path d="m502 86c-5.522 0-10 4.478-10 10v20h-40v-86c0-16.542-13.458-30-30-30h-332c-16.542 0-30 13.458-30 30v86h-40v-20c0-5.522-4.478-10-10-10s-10 4.478-10 10v60c0 5.522 4.478 10 10 10s10-4.478 10-10v-20h40v56.768c-23.628 11.255-40 35.364-40 63.232v116h-10c-5.522 0-10 4.478-10 10v60c0 5.522 4.478 10 10 10h50v30c0 16.542 13.458 30 30 30h40c16.542 0 30-13.458 30-30v-30h192v30c0 16.542 13.458 30 30 30h40c16.542 0 30-13.458 30-30v-30h50c5.522 0 10-4.478 10-10v-60c0-5.522-4.478-10-10-10h-10v-116c0-27.868-16.372-51.977-40-63.232v-56.768h40v20c0 5.522 4.478 10 10 10s10-4.478 10-10v-60c0-5.522-4.478-10-10-10zm-412-66h332c5.514 0 10 4.486 10 10v30h-352v-30c0-5.514 4.486-10 10-10zm-10 166v-106h166v106zm60 296c0 5.514-4.486 10-10 10h-40c-5.514 0-10-4.486-10-10v-30h60zm292 0c0 5.514-4.486 10-10 10h-40c-5.514 0-10-4.486-10-10v-30h60zm60-50h-472v-40h472zm-20-176v116h-432v-116c0-27.57 22.43-50 50-50h332c27.57 0 50 22.43 50 50zm-206-70v-106h166v106z"/></g></svg>