<svg id="Capa_1" enable-background="new 0 0 512 512" height="512" viewBox="0 0 512 512" width="512" xmlns="http://www.w3.org/2000/svg"><g><path d="m106 0c-5.523 0-10 4.478-10 10v492c0 5.522 4.477 10 10 10h300c5.522 0 10-4.478 10-10v-492c0-5.522-4.478-10-10-10zm290 492h-280v-472h280z"/><path d="m166 446h180c5.522 0 10-4.478 10-10 0-9.892 0-169.373 0-180 0-5.522-4.478-10-10-10h-180c-5.523 0-10 4.478-10 10v180c0 5.522 4.477 10 10 10zm10-60h40v40h-40zm100-20h-40v-40h40zm0 20v40h-40v-40zm20-120h40v40h-40zm-20 40h-40v-40h40zm-100-40h40v40h-40zm40 60v40h-40v-40z"/><path d="m166 206h180c5.522 0 10-4.478 10-10v-126c0-5.522-4.478-10-10-10h-180c-5.523 0-10 4.478-10 10v126c0 5.522 4.477 10 10 10zm10-126h160v106h-160z"/></g></svg>