<svg id="Capa_1" enable-background="new 0 0 512 512" height="512" viewBox="0 0 512 512" width="512" xmlns="http://www.w3.org/2000/svg"><g><path d="m166 236c5.522 0 10-4.478 10-10 0-44.112 35.888-80 80-80s80 35.888 80 80c0 5.522 4.478 10 10 10s10-4.478 10-10c0-55.141-44.859-100-100-100s-100 44.859-100 100c0 5.522 4.478 10 10 10z"/><path d="m426 306h-10v-80c0-40.483-15.12-77.495-40-105.706v-110.294c0-5.522-4.478-10-10-10h-60c-5.522 0-10 4.478-10 10v61.063c-12.789-3.304-26.193-5.063-40-5.063s-27.211 1.759-40 5.063v-61.063c0-5.522-4.478-10-10-10h-60c-5.522 0-10 4.478-10 10v110.294c-24.88 28.211-40 65.223-40 105.706v80h-10c-27.57 0-50 22.43-50 50v126c0 16.542 13.458 30 30 30h380c16.542 0 30-13.458 30-30v-126c0-27.57-22.43-50-50-50zm0 20c16.542 0 30 13.458 30 30v10h-40v-40zm-110-306h40v81.199c-12.035-9.663-25.49-17.623-40-23.514zm-120 0v57.685c-14.51 5.891-27.965 13.851-40 23.514v-81.199zm-110 306h10v40h-40v-10c0-16.542 13.458-30 30-30zm-30 156v-96h40v106h-30c-5.514 0-10-4.486-10-10zm60-256c0-77.196 62.804-140 140-140s140 62.804 140 140v266h-40v-176c0-5.522-4.478-10-10-10h-180c-5.522 0-10 4.478-10 10v176h-40zm220 140h-160v-40h160zm-160 20h100v10c0 5.522 4.478 10 10 10s10-4.478 10-10v-10h40v106h-160zm270 106h-30v-106h40v96c0 5.514-4.486 10-10 10z"/><path d="m263.071 190.647c-3.906-3.904-10.236-3.904-14.143 0l-28.281 28.281c-3.905 3.905-3.905 10.237 0 14.143l28.281 28.281c3.907 3.905 10.236 3.904 14.143 0l28.281-28.281c3.905-3.905 3.905-10.237 0-14.143z"/></g></svg>