<svg id="Capa_1" enable-background="new 0 0 512 512" height="512" viewBox="0 0 512 512" width="512" xmlns="http://www.w3.org/2000/svg"><g><path d="m266 146c0-5.522-4.477-10-10-10h-80c-4.304 0-8.125 2.754-9.487 6.838l-32.366 97.097-9.203-18.406c-1.694-3.389-5.156-5.529-8.944-5.529h-20c-5.523 0-10 4.478-10 10s4.477 10 10 10h13.82l17.236 34.472c1.702 3.404 5.176 5.528 8.941 5.528.236 0 .474-.008.712-.025 4.034-.286 7.499-2.976 8.778-6.813l37.721-113.162h72.792c5.523 0 10-4.478 10-10z"/><path d="m263.071 198.929c-3.905-3.904-10.237-3.904-14.143 0l-22.928 22.928-22.929-22.929c-3.905-3.904-10.237-3.904-14.143 0-3.905 3.905-3.905 10.237 0 14.143l22.929 22.929-22.929 22.929c-3.905 3.905-3.905 10.237 0 14.143 3.906 3.905 10.237 3.905 14.143 0l22.929-22.929 22.929 22.929c3.906 3.905 10.237 3.905 14.143 0 3.905-3.905 3.905-10.237 0-14.143l-22.929-22.929 22.929-22.929c3.904-3.905 3.904-10.237-.001-14.142z"/><path d="m316 276h126c5.523 0 10-4.478 10-10s-4.477-10-10-10h-126c-5.523 0-10 4.478-10 10s4.477 10 10 10z"/><path d="m316 216h126c5.523 0 10-4.478 10-10s-4.477-10-10-10h-126c-5.523 0-10 4.478-10 10s4.477 10 10 10z"/><path d="m316 156h126c5.523 0 10-4.478 10-10s-4.477-10-10-10h-126c-5.523 0-10 4.478-10 10s4.477 10 10 10z"/><path d="m502 376h-10v-290c0-5.522-4.477-10-10-10h-452c-5.523 0-10 4.478-10 10v290h-10c-5.523 0-10 4.478-10 10v40c0 5.522 4.477 10 10 10h492c5.523 0 10-4.478 10-10v-40c0-5.522-4.477-10-10-10zm-462-280h432v280h-40v-30c0-16.542-13.458-30-30-30h-86c-16.542 0-30 13.458-30 30v30h-246zm452 320h-472v-20h472z"/></g></svg>