<svg id="Capa_1" enable-background="new 0 0 512 512" height="512" viewBox="0 0 512 512" width="512" xmlns="http://www.w3.org/2000/svg"><g><path d="m259.72.718c-2.387-.957-5.053-.957-7.439 0-93.163 37.303-156.281 133.8-156.281 255.282 0 137.99 83.032 225.951 156.28 255.282 1.194.479 2.457.718 3.72.718s2.525-.239 3.72-.718c73.253-29.333 156.28-116.945 156.28-255.282 0-109.16-52.918-213.894-156.28-255.282zm-3.721 20.234c11.235 5.292 45.888 23.447 77.678 59.048h-155.354c31.797-35.609 66.458-53.763 77.676-59.048zm-117.047 119.048h234.095c14.628 32.432 22.953 74.289 22.953 116 0 41.712-8.325 83.569-22.952 116h-234.096c-14.627-32.431-22.952-74.288-22.952-116 0-41.711 8.325-83.568 22.952-116zm117.049 351.049c-11.232-5.292-45.887-23.445-77.679-59.059h155.356c-31.797 35.619-66.459 53.773-77.677 59.059z"/><path d="m226 246c-5.522 0-10 4.478-10 10s4.478 10 10 10h20v40h-20c-5.522 0-10 4.478-10 10s4.478 10 10 10h60c5.522 0 10-4.478 10-10s-4.478-10-10-10h-20v-40h20c5.522 0 10-4.478 10-10s-4.478-10-10-10h-20v-40h20c5.522 0 10-4.478 10-10s-4.478-10-10-10h-60c-5.522 0-10 4.478-10 10s4.478 10 10 10h20v40z"/></g></svg>